<svg width="36" height="36" viewBox="0 0 36 36" fill="none" xmlns="http://www.w3.org/2000/svg">
<path fill-rule="evenodd" clip-rule="evenodd" d="M18 0.5C8.34 0.5 0.5 8.34 0.5 18C0.5 27.66 8.34 35.5 18 35.5C27.66 35.5 35.5 27.66 35.5 18C35.5 8.34 27.66 0.5 18 0.5ZM18 32C10.2825 32 4 25.7175 4 18C4 10.2825 10.2825 4 18 4C25.7175 4 32 10.2825 32 18C32 25.7175 25.7175 32 18 32ZM14.5 21.7975L24.79 11.5075C25.4725 10.825 26.5925 10.825 27.275 11.5075C27.9575 12.19 27.9575 13.2925 27.275 13.975L15.7425 25.5075C15.06 26.19 13.9575 26.19 13.275 25.5075L8.7425 20.975C8.06 20.2925 8.06 19.19 8.7425 18.5075C9.06946 18.1798 9.51334 17.9956 9.97625 17.9956C10.4392 17.9956 10.883 18.1798 11.21 18.5075L14.5 21.7975Z" fill="white" fill-opacity="0.87"/>
</svg>
