<svg width="96" height="16" viewBox="0 0 96 16" fill="none" xmlns="http://www.w3.org/2000/svg">
<path d="M5.42844 9.18069L5.36356 9.15862L5.25542 9.13655L5.23634 9.13147C4.73448 8.99794 3.81708 8.75384 2.96293 8.16552C1.75181 7.34897 1.08136 6.15724 1.01648 4.67862C0.951599 3.44276 1.34089 2.36138 2.11947 1.52276C3.24409 0.331034 4.86613 0 5.64471 0C7.84678 0 9.07907 0.813654 10.1806 1.54095L10.1864 1.54483L10.6839 1.87586L9.10507 4.50207L8.56439 4.14897L8.54165 4.13401C7.58133 3.50244 6.95367 3.08966 5.64471 3.08966C5.45007 3.08966 4.69311 3.24414 4.30382 3.66345C4.17406 3.79586 4.02267 4.03862 4.0443 4.54621C4.06592 5.34069 4.60661 5.78207 5.99075 6.13517C6.16376 6.17931 6.29353 6.22345 6.42329 6.26758C7.87231 6.77517 8.99694 7.45931 9.77552 8.32C10.5541 9.20276 10.965 10.24 10.965 11.3434C10.965 12.4248 10.5108 13.5503 9.75389 14.411C8.86717 15.4262 7.63442 16 6.2719 16C5.60146 16 4.69311 15.9559 3.61175 15.6248C2.24923 15.1834 1.03811 14.411 0 13.2855L2.20598 11.1669C3.8064 12.9103 5.60146 12.9103 6.2719 12.9103C7.52628 12.9103 7.9372 11.7407 7.9372 11.3434C7.9372 10.5048 7.00723 9.73241 5.42844 9.18069Z" fill="white"/>
<path d="M20.5822 0.220689H30.6821V3.31034H23.61V6.15724H29.4494V9.2469H23.61V15.691H20.5822V0.220689Z" fill="white"/>
<path d="M40.6364 0.220689H50.7364V3.31034H40.6364V0.220689Z" fill="white"/>
<path d="M49.0062 9.26897H40.6364V6.17931H49.0062V9.26897Z" fill="white"/>
<path d="M50.6715 15.691H40.6364V12.6014H50.6715V15.691Z" fill="white"/>
<path d="M68.2259 4.85517C68.2259 3.99448 67.5554 3.28828 66.712 3.28828H63.8139V15.669H60.7861V0.198621H66.712C69.2207 0.198621 71.2537 2.29517 71.2537 4.85517C71.2537 6.73104 70.1723 8.34207 68.5935 9.07035L71.5997 15.691H68.3773L65.5441 9.48966V6.4H66.712C67.5554 6.4 68.2259 5.71586 68.2259 4.85517Z" fill="white"/>
<path d="M80.2337 15.691L87.9547 0.220689H88.8414L96 15.691H92.6478L91.6396 13.4998H87.9107V10.861H90.4255L88.3223 6.28966L83.6292 15.691H80.2337Z" fill="white"/>
</svg>
