<svg width="480" height="44" viewBox="0 0 480 44" fill="none" xmlns="http://www.w3.org/2000/svg">
<path fill-rule="evenodd" clip-rule="evenodd" d="M290.739 3.86247C290.332 4.04923 286.833 4.29989 282.963 4.41959C277.076 4.6015 275.797 4.75717 275.125 5.37251C274.38 6.0548 274.347 6.05492 274.663 5.37065C274.964 4.72064 274.537 4.66433 271.037 4.89022C268.855 5.03158 267.078 5.26217 267.086 5.4031C267.095 5.54445 266.319 5.59642 265.361 5.51882C264.102 5.4171 263.766 5.51433 264.146 5.86906C264.522 6.22016 264.265 6.21821 263.241 5.8624C262.032 5.44157 261.722 5.46576 261.232 6.01974C260.847 6.45497 260.637 6.49901 260.607 6.15081C260.551 5.5051 251.706 5.77391 251.135 6.43848C250.929 6.67831 251.072 6.86164 251.451 6.8459C251.831 6.83016 252.155 7.00597 252.17 7.23661C252.223 8.01744 250.775 7.72089 250.363 6.86663C249.988 6.09075 249.588 6.05141 245.652 6.40682C243.287 6.62057 240.995 6.82118 240.558 6.85274C240.078 6.88735 239.954 7.19277 240.243 7.62612C240.661 8.25304 240.579 8.27621 239.581 7.81254C238.954 7.52103 238.451 7.42288 238.463 7.59481C238.475 7.76674 238.106 7.75091 237.643 7.56026C236.372 7.03602 230.151 7.52364 228.94 8.2429C228.119 8.73028 227.805 8.75804 227.567 8.36543C227.371 8.04176 226.871 7.99566 226.193 8.23864C225.608 8.44924 223.86 8.63568 222.31 8.65285C220.188 8.6761 219.197 8.91065 218.295 9.60281C217.636 10.1087 216.89 10.4029 216.637 10.2565C216.383 10.1106 216.535 9.97605 216.975 9.95782C217.414 9.9396 217.58 9.74348 217.343 9.52203C217.105 9.30059 215.629 9.17259 214.061 9.23759C211.623 9.3387 211.179 9.49423 210.992 10.3111L210.773 11.2663L210.62 10.3265C210.456 9.31812 209.431 9.09023 209.026 9.97206C208.644 10.8054 210.06 12.2825 211.238 12.2795C215.327 12.2693 219.158 12.0679 221.091 11.7611C222.337 11.5639 225.04 11.2941 227.099 11.1616C230.587 10.9375 231.129 10.709 230.82 9.59389C230.757 9.36523 231.131 9.49185 231.651 9.87482C232.848 10.7562 234.623 10.6919 236.131 9.71258C237 9.14879 237.221 9.11229 236.984 9.57211C236.735 10.0551 237.381 10.1822 239.895 10.1461C242.76 10.1047 243.152 9.99292 243.349 9.16179L243.571 8.22405L244.106 9.11985C244.607 9.95697 244.966 9.99087 249.619 9.63893C252.357 9.43204 256.429 9.15594 258.667 9.02526C260.906 8.89455 262.726 8.61764 262.712 8.41006C262.698 8.20248 263.312 8.2174 264.077 8.44389C265.162 8.76473 265.696 8.70644 266.511 8.17681C267.267 7.68625 267.883 7.60059 268.739 7.86701C270.319 8.35825 277.588 8.37265 278.006 7.88555C278.189 7.67232 279.382 7.60774 280.679 7.74105C281.968 7.87306 284.539 7.79419 286.393 7.5655C288.246 7.33641 291.626 7.16763 293.905 7.18963C296.182 7.21166 298.149 7.15618 298.274 7.06645C298.399 6.97631 304.093 6.67332 310.927 6.39244C322.035 5.93595 323.348 5.80875 323.315 5.18986C323.285 4.62758 323.393 4.60291 323.893 5.05823C324.253 5.38685 325.069 5.49978 325.863 5.33144C326.609 5.17353 327.229 5.19995 327.242 5.39076C327.255 5.58156 329.317 5.62051 331.824 5.47701C334.348 5.33241 336.376 5.02837 336.366 4.79622C336.356 4.56534 336.591 4.59765 336.888 4.86748C337.277 5.22061 339.528 5.23363 344.891 4.91365C348.996 4.66898 352.644 4.40584 352.998 4.32932C353.353 4.25281 353.793 4.22994 353.976 4.2787C355.291 4.62661 362.919 4.45575 368.176 3.96061C370.053 3.78396 371.595 3.75993 371.605 3.90712C371.615 4.05473 372.287 4.18711 373.097 4.20189C378.512 4.29984 381.212 4.18283 381.898 3.82005C382.403 3.5531 382.699 3.57238 382.719 3.87389C382.764 4.53772 387.013 4.28498 387.844 3.56885C388.222 3.24282 388.374 2.88494 388.181 2.77352C387.988 2.6625 388.262 2.31432 388.788 1.9998C389.574 1.53071 389.754 1.54133 389.789 2.05713C389.812 2.4031 389.41 2.93743 388.896 3.24474C387.335 4.17619 388.403 4.42751 393.202 4.25794C395.722 4.16858 398.084 4.20012 398.453 4.32783C398.821 4.45553 399.281 4.25183 399.475 3.8754C399.794 3.25873 399.913 3.25797 400.685 3.86812C401.483 4.49864 401.592 4.48778 402.281 3.70942C402.887 3.02405 402.966 3.00817 402.716 3.62158C402.521 4.10024 402.756 4.35585 403.368 4.33046C403.895 4.30861 404.313 3.96032 404.297 3.556C404.271 2.90987 404.368 2.89407 405.105 3.42407C405.684 3.84078 406.948 3.95954 409.197 3.80821C410.987 3.68814 413.877 3.74575 415.619 3.93634C418.099 4.20778 419.069 4.15451 420.085 3.69184C420.799 3.36659 421.202 3.31161 420.981 3.5689C420.753 3.83361 421.092 4.02982 421.76 4.02061C422.41 4.01131 423.535 4.06854 424.26 4.14825C425.428 4.27601 431.124 4.09781 432.293 3.89666C432.538 3.85457 433.266 3.94423 433.911 4.09578C434.556 4.24733 435.659 4.24951 436.363 4.10005C437.067 3.95101 437.653 3.97508 437.665 4.15331C437.677 4.33195 438.934 4.42867 440.458 4.36841C443.105 4.26412 445.816 4.37205 451.893 4.8244C453.622 4.95329 454.893 4.85348 455.308 4.55663C455.774 4.22318 455.979 4.23233 456.003 4.58668C456.048 5.2526 457.803 5.16259 458.178 4.47544C458.412 4.0452 458.489 4.04203 458.558 4.45968C458.682 5.20016 461.262 5.00356 461.212 4.25754C461.187 3.89438 461.561 3.72075 462.123 3.83414C462.646 3.93984 462.944 4.28115 462.784 4.59186C462.584 4.97776 463.026 5.11547 464.172 5.02502C465.59 4.91368 465.69 4.8254 464.813 4.46016C463.877 4.07087 463.875 3.9978 464.787 3.73035C465.373 3.55847 465.645 3.61532 465.431 3.8639C465.227 4.10111 465.371 4.28226 465.751 4.26652C466.13 4.25078 466.461 4.52094 466.484 4.86691C466.53 5.53786 467.317 5.66378 468.074 5.12186C468.844 4.57012 470.675 4.65696 471.56 5.28722C472.304 5.81693 472.396 5.81312 472.385 5.25299C472.377 4.85508 472.56 4.78062 472.882 5.05113C473.434 5.51521 479.055 6.78844 479.415 6.53088C479.536 6.44428 479.119 5.94809 478.489 5.42797C477.413 4.54108 477.32 4.53276 476.964 5.29482C476.613 6.04698 476.454 6.02622 474.841 5.02119C473.772 4.35442 472.314 3.93212 471.068 3.92742C469.952 3.92325 469.029 3.79416 469.018 3.64028C468.95 2.71371 456.951 1.49177 455.09 2.22203C454.361 2.50796 453.913 2.44874 453.626 2.02833C453.368 1.64838 452.339 1.45848 450.872 1.51932C449.173 1.58979 448.675 1.75467 449.057 2.12028C449.384 2.4343 449.132 2.41533 448.387 2.06941C447.729 1.76405 446.393 1.52342 445.416 1.5345C444.44 1.54554 443.267 1.42512 442.81 1.26702C442.354 1.10849 439.711 1.00109 436.938 1.02818C434.166 1.05483 431.896 1.05227 431.894 1.02165C431.871 0.685755 426.542 1.07835 426.211 1.44028C425.895 1.78599 425.75 1.77603 425.718 1.40604C425.693 1.11817 425.361 0.895162 424.982 0.9109C424.603 0.926639 424.506 1.13965 424.768 1.38406C425.029 1.62846 424.528 1.57691 423.654 1.27001C421.774 0.609513 413.866 0.347475 413.907 0.947145C413.923 1.18324 413.225 1.17603 412.224 0.929052C410.839 0.58781 410.41 0.627043 409.97 1.13692C409.517 1.66076 409.191 1.68479 408.029 1.28049C406.639 0.797317 403.378 0.626847 395.905 0.647027C393.747 0.652813 391.98 0.631053 391.978 0.599183C391.976 0.566893 390.749 0.556789 389.252 0.576807C387.114 0.605347 386.686 0.72151 387.256 1.11839C387.807 1.50177 387.72 1.57058 386.894 1.40382C386.296 1.2827 385.794 1.00578 385.779 0.788141C385.764 0.57008 384.213 0.477953 382.332 0.583307C379.419 0.746591 367.187 0.965798 360.605 0.972604C359.519 0.97388 358.116 1.12583 357.487 1.31004C356.8 1.51138 356.492 1.47326 356.715 1.21425C357.236 0.607255 356.117 0.720078 355.216 1.36511C354.635 1.7816 354.286 1.79604 353.651 1.43001C352.642 0.848221 349.824 0.921345 349.866 1.52772C349.882 1.77179 349.537 1.8479 349.1 1.69614C348.163 1.37123 331.534 1.87288 331.894 2.21501C332.028 2.34359 331.387 2.84497 330.467 3.32969L328.797 4.21146L329.977 3.24492C331.155 2.28056 331.153 2.27894 329.26 2.31836C328.216 2.33977 326.26 2.35489 324.91 2.35155C323.466 2.34836 322.467 2.53573 322.479 2.80729C322.491 3.06795 322.244 3.03571 321.912 2.73284C321.333 2.20594 318.125 2.41471 316.662 3.07419C316.292 3.24134 315.979 3.22533 315.966 3.03872C315.93 2.5137 303.966 3.24663 303.727 3.78893C303.589 4.10166 302.914 4.08003 301.658 3.72292C300.634 3.4311 299.633 3.3086 299.434 3.45056C298.989 3.7697 294.187 3.94697 292.624 3.70228C291.994 3.6035 291.145 3.67572 290.739 3.86247ZM235.572 8.34552C235.809 8.56697 235.71 8.76033 235.351 8.7752C234.992 8.79007 234.505 8.62105 234.267 8.3996C234.03 8.17816 234.129 7.9848 234.488 7.96993C234.847 7.95505 235.334 8.12407 235.572 8.34552ZM199.197 10.4878C198.281 10.8395 197.373 10.9814 197.182 10.8026C196.708 10.3601 193.478 10.5185 192.108 11.0517C191.366 11.3407 190.983 11.3309 190.962 11.0231C190.945 10.7686 190.424 10.6834 189.805 10.8331C189.186 10.9828 187.613 11.1927 186.31 11.2993C184.727 11.4293 184.057 11.6628 184.289 12.0034C184.505 12.3208 184.12 12.51 183.272 12.504C182.522 12.4989 181.893 12.2832 181.876 12.0249C181.836 11.4307 179.455 11.6232 178.514 12.2968C178.052 12.6275 177.405 12.6859 176.655 12.4643C175.944 12.2541 173.306 12.3841 169.749 12.8045C166.583 13.1784 162.089 13.6071 159.761 13.7566C157.434 13.9061 154.942 14.2651 154.222 14.554C153.503 14.8425 152.524 14.9436 152.047 14.778C151.569 14.6123 150.118 14.6696 148.821 14.9046C147.524 15.1396 144.226 15.5127 141.491 15.7334C138.756 15.9545 136.183 16.2861 135.774 16.4705C135.366 16.6548 133.223 16.959 131.012 17.1457C124.951 17.6582 122.124 17.9878 118.579 18.5949C116.807 18.8984 115.127 19.0665 114.844 18.9689C114.562 18.8708 114.344 18.9703 114.359 19.19C114.373 19.4098 113.938 19.7205 113.391 19.8812C112.843 20.0414 112.535 20.0104 112.705 19.8125C113.057 19.4021 109.551 19.6443 107.441 20.1754C106.476 20.4186 106.181 20.7395 106.494 21.2046C106.889 21.7921 106.79 21.7895 105.733 21.1853C104.782 20.6423 103.857 20.5692 101.496 20.8513C99.8345 21.0498 97.5859 21.3016 96.4981 21.4106C95.4102 21.5196 94.2473 21.7268 93.9138 21.8714C93.5804 22.0161 92.496 22.109 91.5052 22.0781C90.5145 22.0473 89.715 22.1953 89.7294 22.4075C89.7438 22.6197 89.2399 22.7869 88.6104 22.7794C86.1379 22.7486 85.1157 22.9966 85.6403 23.4997C85.9971 23.8419 85.7997 23.8337 85.0233 23.474C84.3144 23.1451 83.8927 23.1176 83.912 23.4015C83.9291 23.6531 83.5261 23.7749 83.0155 23.6716C82.5057 23.5687 81.9057 23.6975 81.6821 23.9574C81.4585 24.2177 81.031 24.3452 80.731 24.2416C79.8832 23.9475 69.6075 25.3063 68.1197 25.9093C67.3891 26.2053 66.0822 26.5064 65.2154 26.5777C64.3487 26.6494 63.1322 27.1561 62.5129 27.7036C61.4821 28.614 61.0529 28.5809 61.264 27.6078C61.3759 27.0893 55.2108 27.8362 54.9757 28.3695C54.8714 28.6059 53.9415 28.7488 52.9081 28.6874C50.6837 28.555 49.8458 29.2622 51.132 30.1858C51.9727 30.7893 51.9107 30.791 50.4081 30.2057C48.735 29.5539 45.0617 29.7588 42.2296 30.6618C41.5256 30.8861 40.1384 31.2187 39.147 31.4002C38.1556 31.5814 37.5196 31.8933 37.7333 32.093C37.9476 32.2927 37.8151 32.5947 37.4395 32.7642C36.9992 32.9628 37.1794 33.2476 37.9465 33.5666C39.3111 34.1332 41.0236 33.8061 40.3052 33.1155C40.0414 32.8615 40.3377 32.8917 40.9642 33.1819C41.9365 33.6328 42.3389 33.598 43.7076 32.9458C44.5905 32.5252 45.5845 32.2754 45.9166 32.3908C46.2494 32.5061 46.6995 32.3928 46.917 32.1394C47.1345 31.8857 47.9281 31.777 48.6792 31.8977C49.7395 32.0678 49.9483 31.9733 49.6098 31.4768C49.2583 30.9616 49.4571 30.894 50.6319 31.1308C51.7237 31.3505 52.4695 31.182 53.6007 30.4606C54.4318 29.9303 54.9287 29.7276 54.704 30.0103C54.0666 30.8118 55.3294 30.9962 56.6556 30.2952C57.331 29.9379 58.1491 29.8043 58.5356 29.9881C59.662 30.5234 63.7353 29.6139 63.6924 28.8368C63.6436 27.9646 64.5336 27.2927 64.6906 28.0831C64.7559 28.408 64.7751 28.8353 64.7348 29.0321C64.5614 29.8769 66.3073 28.8756 66.6456 27.936C66.8898 27.2576 67.0579 27.1527 67.1329 27.6315C67.2378 28.2987 68.547 28.5607 70.1823 28.2414C70.5372 28.172 71.4112 28.0428 72.1244 27.9543C72.8377 27.8659 73.418 27.7451 73.414 27.6864C73.4031 27.5258 75.5501 27.2227 79.8908 26.7727C84.4282 26.3019 85.5989 26.0465 85.1479 25.6257C84.9685 25.4582 85.6734 25.2856 86.7147 25.2424C87.7567 25.1992 88.6173 25.2875 88.6276 25.4389C88.6379 25.5903 89.2265 25.5911 89.9355 25.441C90.6446 25.2905 91.2128 24.9915 91.1982 24.7764C91.1835 24.56 92.4758 24.4295 94.0907 24.4844C96.1526 24.5545 97.2786 24.3913 97.924 23.9293C98.5788 23.461 98.9201 23.4132 99.1288 23.7612C99.3523 24.1346 100.457 24.0862 103.908 23.5508C106.376 23.1679 108.908 22.8253 109.535 22.7896C110.163 22.754 110.663 22.544 110.648 22.3234C110.633 22.1028 111.366 22.0106 112.277 22.1187C113.227 22.2311 114.332 22.0772 114.868 21.7573C115.382 21.4504 115.815 21.374 115.829 21.5871C115.845 21.8215 117.588 21.7618 120.233 21.4364C122.64 21.1397 125.344 20.8804 126.242 20.86C127.14 20.8392 129.181 20.5762 130.779 20.2749C132.377 19.9739 135.146 19.582 136.932 19.404C138.718 19.2265 141.199 18.9205 142.444 18.7246C143.689 18.5288 146.612 18.2293 148.938 18.0596C157.001 17.4708 163.563 16.7125 164.289 16.2854C164.694 16.0479 165.186 16.0127 165.394 16.2068C165.923 16.7 171.227 16.1453 172.79 15.4333C173.226 15.2344 173.594 15.2414 173.608 15.4486C173.622 15.6557 174.582 15.7181 175.743 15.5871C176.903 15.4562 178.798 15.2682 179.955 15.1694C182.177 14.9801 183.281 13.97 181.832 13.4527C181.359 13.284 181.218 13.1329 181.52 13.1166C181.822 13.1007 182.841 13.434 183.784 13.8575C185.534 14.6436 190.563 14.7749 190.513 14.033C190.497 13.8041 191.449 13.7768 192.856 13.9661C195.775 14.3585 197.156 14.0107 196.584 13.0272C196.313 12.5624 196.373 12.4645 196.747 12.761C197.639 13.4679 200.957 13.7706 200.914 13.1412C200.887 12.7336 201.092 12.7259 201.887 13.1034C202.563 13.4248 203.861 13.4479 205.833 13.1744C208.702 12.7757 208.765 12.7328 208.522 11.3323C208.37 10.4518 207.932 9.9123 207.39 9.93477C206.905 9.95492 206.721 10.1715 206.983 10.4159C207.245 10.6603 206.668 10.5678 205.7 10.2105C204.688 9.83659 203.954 9.75474 203.972 10.0177C203.993 10.3255 203.489 10.3724 202.433 10.1614C201.363 9.94755 200.334 10.0516 199.197 10.4878ZM227.109 9.88786C227.306 10.0727 227.054 10.2408 226.547 10.2619C226.041 10.2829 225.767 10.1365 225.939 9.93638C226.11 9.73666 226.363 9.56848 226.5 9.5628C226.637 9.55712 226.911 9.70345 227.109 9.88786ZM137.81 17.8916C137.825 18.1088 137.544 18.2983 137.185 18.3132C136.826 18.3281 136.513 18.0459 136.489 17.6865C136.464 17.3271 136.745 17.1371 137.114 17.2648C137.482 17.3925 137.795 17.6743 137.81 17.8916ZM48.4081 30.1705C48.4151 30.2724 48.1352 30.4842 47.7863 30.6416C47.4373 30.7991 47.1382 30.7278 47.1216 30.4837C47.1051 30.2397 47.3849 30.0275 47.7435 30.0126C48.1021 29.9977 48.4012 30.0686 48.4081 30.1705ZM30.5029 33.7045C29.7097 33.9355 29.0734 34.3193 29.0896 34.5575C29.1313 35.171 30.907 35.0225 31.2619 34.3757C31.4894 33.9605 31.71 33.9644 32.2282 34.3924C32.984 35.0171 36.2819 34.5502 36.2326 33.8252C36.213 33.5367 35.833 33.5453 35.0907 33.8511C34.3121 34.171 33.6721 34.1547 32.9619 33.7964C32.278 33.4518 31.4737 33.4216 30.5029 33.7045ZM26.4806 34.6544C26.4954 34.8716 26.8557 35.1695 27.2809 35.3167C27.7376 35.4752 27.8652 35.409 27.5922 35.1545C27.3388 34.9178 27.4933 34.6132 27.9359 34.4775C28.4215 34.3291 28.2871 34.2371 27.5972 34.2456C26.968 34.2536 26.4659 34.4371 26.4806 34.6544ZM23.2795 35.6593C23.2968 35.9138 23.5964 35.9931 23.9454 35.8356C24.2943 35.6782 24.5998 35.8438 24.6242 36.2032C24.6486 36.5626 25.1088 36.8387 25.6467 36.8164C26.7069 36.7724 26.8568 36.3793 26.0547 35.7482C25.328 35.1765 23.2422 35.1099 23.2795 35.6593ZM30.1541 35.7884C29.948 36.0283 30.0906 36.2116 30.4701 36.1958C30.8496 36.1801 31.1478 35.9785 31.1322 35.7479C31.1165 35.5172 30.9745 35.3339 30.8161 35.3404C30.6577 35.347 30.3601 35.5486 30.1541 35.7884ZM20.1439 36.8693C20.2084 37.3565 20.3697 37.4495 20.555 37.1066C20.7229 36.796 20.6748 36.4351 20.4489 36.3049C20.2229 36.1746 20.0859 36.4284 20.1439 36.8693ZM15.5685 37.6553C14.779 38.0371 14.773 38.1707 15.5313 38.4458C16.7092 38.8738 19.0152 38.3888 18.656 37.7888C18.2813 37.1631 16.7251 37.096 15.5685 37.6553ZM12.0943 38.5782C11.9186 38.7827 12.2205 39.2904 12.7654 39.7069C13.3102 40.1229 13.7506 40.2425 13.7434 39.9729C13.7368 39.7027 13.8887 39.1762 14.0817 38.8024C14.4526 38.0834 12.6899 37.8845 12.0943 38.5782ZM9.70344 39.1808C9.39847 40.0143 9.54584 41.2689 9.9475 41.2523C10.8089 41.2165 11.208 39.8152 10.4771 39.3938C10.0905 39.171 9.74267 39.0748 9.70344 39.1808ZM6.27799 40.4646C5.57619 40.8372 5.37605 42.7034 6.04114 42.6759C6.27327 42.6662 6.95124 42.2508 7.54773 41.7525C8.98825 40.5498 8.00158 39.5495 6.27799 40.4646ZM3.43426 41.9181C3.46651 42.3928 3.78635 42.7694 4.14498 42.7545C4.5036 42.7396 4.77856 42.4557 4.75597 42.1232C4.73337 41.7906 4.41356 41.4145 4.04525 41.2868C3.67693 41.1591 3.402 41.4434 3.43426 41.9181ZM0.763996 42.3447C0.0415909 42.9819 0.0496602 43.0333 0.819116 42.6939C1.49526 42.3959 1.62816 42.4753 1.35139 43.0116C1.14859 43.4048 1.23579 43.7162 1.54421 43.7034C2.11019 43.6799 2.83016 42.6509 2.78155 41.9355C2.73972 41.3199 1.68386 41.534 0.763996 42.3447Z" fill="#E01616"/>
</svg>
