<svg width="405" height="22" viewBox="0 0 405 22" fill="none" xmlns="http://www.w3.org/2000/svg">
<path fill-rule="evenodd" clip-rule="evenodd" d="M158.136 21.1549C158.492 21.0048 161.442 20.9671 164.69 21.0711C169.632 21.2295 170.716 21.1566 171.332 20.6249C172.015 20.0354 172.043 20.0371 171.719 20.6522C171.41 21.2365 171.762 21.3123 174.71 21.2976C176.548 21.2879 178.056 21.1733 178.061 21.0425C178.066 20.9113 178.72 20.9063 179.515 21.0312C180.559 21.1951 180.849 21.1239 180.562 20.7748C180.278 20.4293 180.493 20.4454 181.318 20.8311C182.293 21.2873 182.554 21.2821 183.013 20.7971C183.373 20.416 183.553 20.387 183.548 20.7106C183.538 21.3107 190.962 21.5528 191.498 20.97C191.691 20.7597 191.588 20.5823 191.269 20.5758C190.95 20.5693 190.695 20.3888 190.702 20.1747C190.726 19.4498 191.912 19.8043 192.181 20.617C192.427 21.3552 192.758 21.4137 196.082 21.3034C198.08 21.237 200.016 21.1787 200.384 21.1737C200.788 21.1683 200.919 20.8928 200.715 20.4761C200.421 19.8733 200.491 19.8564 201.286 20.3405C201.784 20.6448 202.196 20.7634 202.202 20.6038C202.207 20.4442 202.514 20.4793 202.885 20.6812C203.902 21.2365 209.15 21.1307 210.226 20.5329C210.956 20.1278 211.222 20.1195 211.386 20.4957C211.521 20.8058 211.936 20.8762 212.524 20.6892C213.033 20.5269 214.511 20.4515 215.81 20.5216C217.587 20.6178 218.437 20.4559 219.252 19.866C219.848 19.4348 220.498 19.2042 220.697 19.3535C220.897 19.5025 220.757 19.6185 220.388 19.611C220.019 19.6035 219.863 19.7756 220.042 19.9935C220.221 20.2114 221.445 20.4117 222.763 20.4385C224.811 20.4803 225.197 20.3611 225.425 19.6162L225.692 18.7451L225.737 19.6226C225.786 20.564 226.623 20.8316 227.04 20.0387C227.433 19.2894 226.378 17.8452 225.392 17.7826C221.97 17.5652 218.747 17.5389 217.102 17.7154C216.043 17.8286 213.758 17.9281 212.023 17.9364C209.085 17.9501 208.612 18.1314 208.772 19.1794C208.805 19.3944 208.503 19.2566 208.101 18.8736C207.177 17.9923 205.686 17.9533 204.339 18.7751C203.562 19.2482 203.374 19.2697 203.613 18.8577C203.863 18.4249 203.334 18.2716 201.228 18.1655C198.827 18.0449 198.489 18.1265 198.252 18.884L197.983 19.7387L197.614 18.8808C197.269 18.079 196.971 18.0277 193.047 18.095C190.739 18.1344 187.307 18.1639 185.423 18.1605C183.538 18.1572 181.991 18.3122 181.985 18.5049C181.978 18.6976 181.466 18.6498 180.846 18.398C179.966 18.0411 179.514 18.0654 178.786 18.5099C178.11 18.9215 177.588 18.9666 176.895 18.6727C175.615 18.1309 169.535 17.7144 169.142 18.1415C168.97 18.3285 167.967 18.3221 166.893 18.1269C165.826 17.9333 163.668 17.8636 162.097 17.9722C160.527 18.0812 157.684 18.0498 155.779 17.9031C153.876 17.7564 152.225 17.6986 152.113 17.7746C152 17.851 147.209 17.8153 141.467 17.6959C132.133 17.5018 131.023 17.5466 130.997 18.1206C130.972 18.6422 130.88 18.659 130.501 18.2103C130.229 17.8864 129.556 17.7368 128.877 17.8484C128.24 17.953 127.723 17.8942 127.729 17.7171C127.735 17.5399 126.012 17.3895 123.902 17.3831C121.778 17.3768 120.055 17.5455 120.043 17.7606C120.031 17.9747 119.837 17.9318 119.612 17.6658C119.318 17.3177 117.435 17.1808 112.92 17.1792C109.464 17.1777 106.389 17.2186 106.086 17.2697C105.782 17.3208 105.412 17.3175 105.263 17.2623C104.194 16.8677 97.7962 16.6025 93.3543 16.7687C91.7688 16.8279 90.4758 16.7646 90.4804 16.6279C90.485 16.4909 89.9349 16.3313 89.2586 16.2727C84.736 15.8817 82.4669 15.8401 81.861 16.1375C81.415 16.3563 81.1694 16.3221 81.1788 16.0422C81.1993 15.4259 77.6223 15.4239 76.8642 16.0399C76.5193 16.3204 76.3605 16.6429 76.5124 16.7566C76.6638 16.8699 76.4046 17.1767 75.9364 17.4383C75.238 17.8284 75.0884 17.8086 75.1044 17.3298C75.1151 17.0086 75.4983 16.5368 75.9559 16.2813C77.3437 15.5066 76.4718 15.215 72.4421 15.1056C70.3259 15.0485 68.3519 14.8882 68.055 14.7497C67.758 14.6112 67.355 14.774 67.1595 15.1113C66.839 15.6638 66.7388 15.6579 66.1466 15.0509C65.5348 14.4237 65.4421 14.4277 64.7975 15.1091C64.2303 15.7092 64.163 15.7195 64.4261 15.1662C64.6313 14.7345 64.457 14.4851 63.9425 14.4746C63.4998 14.4656 63.1197 14.7645 63.0973 15.1392C63.062 15.738 62.9794 15.7472 62.4094 15.2163C61.9616 14.7989 60.9149 14.619 59.0194 14.6341C57.5112 14.6459 55.0982 14.4323 53.6575 14.1594C51.6067 13.7709 50.7904 13.7664 49.8996 14.1378C49.2735 14.3989 48.9315 14.4274 49.1392 14.2018C49.3531 13.9696 49.0867 13.7694 48.5268 13.7409C47.9821 13.7134 47.0462 13.5981 46.4468 13.4842C45.4808 13.3013 40.6991 13.1501 39.7032 13.2712C39.4951 13.2966 38.8939 13.1733 38.3674 12.9974C37.8408 12.8215 36.9179 12.7583 36.3159 12.8574C35.7138 12.9562 35.226 12.9014 35.2316 12.736C35.2371 12.5701 34.1935 12.4109 32.9131 12.3821C30.6897 12.3317 28.4309 12.0816 23.3859 11.3262C21.9505 11.1111 20.8784 11.1329 20.5054 11.3844C20.0864 11.6668 19.9154 11.647 19.9264 11.318C19.947 10.6998 18.4709 10.6857 18.0967 11.3002C17.8629 11.685 17.7988 11.6837 17.7773 11.2937C17.739 10.6022 15.5626 10.6408 15.5395 11.3334C15.5282 11.6706 15.2 11.8103 14.7401 11.6744C14.3112 11.5476 14.092 11.2155 14.2537 10.9371C14.4544 10.5914 14.0971 10.4396 13.1298 10.4596C11.9342 10.4839 11.8423 10.56 12.5438 10.9463C13.2928 11.3581 13.2883 11.4258 12.5015 11.6225C11.9967 11.749 11.7741 11.6813 11.975 11.4633C12.1661 11.2553 12.0613 11.0798 11.7424 11.0733C11.4235 11.0668 11.1709 10.7987 11.1816 10.4775C11.2024 9.85464 10.5553 9.69459 9.87428 10.1536C9.18097 10.621 7.65726 10.4392 6.97214 9.80739C6.39606 9.27635 6.31881 9.27477 6.27847 9.79325C6.25027 10.1616 6.09038 10.2203 5.84492 9.95232C5.42382 9.49261 0.832698 8.00359 0.509041 8.22178C0.40022 8.29514 0.705442 8.77703 1.18717 9.2929C2.00877 10.1725 2.08618 10.1854 2.45119 9.50059C2.81097 8.82461 2.94166 8.8526 4.20329 9.87133C5.03937 10.5471 6.22221 11.0185 7.26373 11.0919C8.19749 11.1577 8.9583 11.3282 8.95408 11.4711C8.92919 12.3316 18.861 14.1269 20.4823 13.555C21.1175 13.3311 21.4872 13.4107 21.6902 13.8153C21.8732 14.1809 22.717 14.4136 23.9498 14.4387C25.3777 14.4678 25.8085 14.3429 25.5217 13.9838C25.2754 13.6753 25.4848 13.7068 26.0776 14.0679C26.601 14.3868 27.6981 14.6834 28.5164 14.7273C29.3341 14.7713 30.3047 14.9477 30.6729 15.1192C31.0411 15.2911 33.2426 15.537 35.5647 15.6657C37.8863 15.7948 39.7857 15.9231 39.7848 15.9516C39.7744 16.2634 44.2678 16.196 44.5766 15.8798C44.8707 15.5776 44.9913 15.5949 44.9859 15.9387C44.9813 16.2063 45.2392 16.4309 45.5581 16.4374C45.877 16.4439 45.9766 16.2523 45.779 16.0118C45.5814 15.7713 45.9962 15.8468 46.7007 16.179C48.2153 16.894 54.809 17.5749 54.8275 17.0182C54.8349 16.799 55.4184 16.8444 56.2341 17.1283C57.3626 17.5206 57.7249 17.5081 58.1384 17.0611C58.5634 16.6019 58.8382 16.5978 59.7748 17.0361C60.8951 17.5599 63.6089 17.8984 69.8633 18.2943C71.6689 18.4086 73.1454 18.5267 73.1444 18.5563C73.1434 18.5863 74.1689 18.6637 75.4229 18.7282C77.2144 18.8204 77.583 18.7368 77.1406 18.3382C76.7132 17.9532 76.7924 17.8944 77.469 18.0944C77.9587 18.2396 78.3544 18.5234 78.3476 18.7255C78.3409 18.9279 79.6303 19.0991 81.2135 19.1061C83.6652 19.1167 93.9185 19.5925 99.4268 19.9514C100.335 20.0104 101.522 19.9477 102.064 19.8123C102.657 19.6643 102.911 19.7166 102.703 19.9437C102.213 20.4761 103.159 20.4338 103.969 19.8874C104.493 19.5346 104.785 19.5405 105.285 19.9142C106.078 20.5081 108.442 20.5968 108.461 20.0338C108.468 19.8072 108.763 19.756 109.116 19.9206C109.871 20.2729 123.828 20.7315 123.558 20.3953C123.457 20.2689 124.037 19.841 124.849 19.4438L126.324 18.7212L125.252 19.5494C124.182 20.3757 124.183 20.3772 125.771 20.4458C126.646 20.4839 128.284 20.5785 129.413 20.6564C130.62 20.7395 131.473 20.6217 131.487 20.3699C131.5 20.1282 131.703 20.1717 131.955 20.4702C132.392 20.9894 135.096 20.9744 136.377 20.4458C136.701 20.3118 136.962 20.344 136.956 20.5172C136.94 21.0046 147.015 20.9906 147.262 20.5025C147.405 20.221 147.968 20.2784 148.987 20.6783C149.819 21.0049 150.646 21.1737 150.824 21.0534C151.225 20.7831 155.258 20.8855 156.544 21.1985C157.063 21.3247 157.779 21.3051 158.136 21.1549ZM204.687 20.0701C204.508 19.8522 204.608 19.6789 204.909 19.6851C205.211 19.6912 205.604 19.8745 205.783 20.0925C205.962 20.3104 205.862 20.4836 205.561 20.4775C205.259 20.4714 204.866 20.288 204.687 20.0701ZM235.309 20.1071C236.107 19.8328 236.878 19.7519 237.022 19.9278C237.38 20.3632 240.097 20.396 241.289 19.9789C241.936 19.7529 242.255 19.7832 242.246 20.0689C242.238 20.3052 242.666 20.4129 243.197 20.3088C243.728 20.2047 245.063 20.0979 246.162 20.0716C247.499 20.0392 248.08 19.8606 247.915 19.5327C247.763 19.2273 248.101 19.0737 248.81 19.1263C249.437 19.1726 249.944 19.4069 249.936 19.6468C249.918 20.1984 251.926 20.1525 252.773 19.5819C253.188 19.3017 253.735 19.2836 254.343 19.5301C254.919 19.7639 257.138 19.79 260.151 19.5986C262.833 19.4285 266.631 19.2815 268.591 19.2724C270.552 19.2632 272.668 19.0695 273.296 18.8423C273.923 18.6155 274.75 18.5763 275.135 18.7559C275.521 18.9356 276.74 18.9632 277.845 18.8178C278.951 18.6724 281.743 18.5104 284.051 18.4581C286.359 18.4054 288.54 18.2414 288.899 18.0937C289.257 17.9459 291.077 17.7836 292.943 17.7335C298.059 17.5959 300.453 17.448 303.473 17.0833C304.982 16.901 306.402 16.8388 306.63 16.9447C306.857 17.051 307.049 16.9712 307.056 16.7672C307.063 16.5632 307.454 16.3 307.927 16.1818C308.399 16.0641 308.654 16.1098 308.494 16.2834C308.163 16.6432 311.119 16.6139 312.93 16.2398C313.759 16.0685 314.034 15.7882 313.813 15.3407C313.534 14.7756 313.617 14.7836 314.448 15.4008C315.196 15.9556 315.963 16.0745 317.964 15.9446C319.371 15.8533 321.275 15.7453 322.195 15.7048C323.114 15.6643 324.106 15.5373 324.397 15.4221C324.689 15.3068 325.604 15.2811 326.431 15.3645C327.257 15.448 327.939 15.3555 327.945 15.1586C327.952 14.9616 328.388 14.8349 328.914 14.8768C330.98 15.0424 331.857 14.8697 331.463 14.3755C331.194 14.0393 331.359 14.0578 331.977 14.4335C332.541 14.7769 332.891 14.8258 332.9 14.5622C332.908 14.3286 333.256 14.2383 333.674 14.3621C334.091 14.4856 334.605 14.3998 334.815 14.1719C335.025 13.9436 335.393 13.8495 335.635 13.9619C336.319 14.2809 345.036 13.5945 346.333 13.1195C346.971 12.8863 348.091 12.6805 348.822 12.6626C349.554 12.6444 350.616 12.2434 351.182 11.7715C352.125 10.987 352.481 11.0414 352.219 11.9293C352.079 12.4026 357.303 12.054 357.547 11.574C357.655 11.3611 358.445 11.2806 359.305 11.3947C361.154 11.6405 361.917 11.0331 360.922 10.1078C360.272 9.50322 360.324 9.50506 361.53 10.1296C362.872 10.8251 365.964 10.8394 368.413 10.1616C369.021 9.9932 370.211 9.76267 371.057 9.64978C371.902 9.53728 372.462 9.28417 372.3 9.08765C372.139 8.89113 372.276 8.61928 372.605 8.48341C372.991 8.32414 372.865 8.05083 372.251 7.71342C371.159 7.11382 369.698 7.32128 370.238 7.99963C370.437 8.2491 370.191 8.20476 369.693 7.90164C368.919 7.43085 368.579 7.44067 367.377 7.9678C366.601 8.30767 365.747 8.4835 365.48 8.35844C365.211 8.23338 364.825 8.31315 364.621 8.53533C364.416 8.7579 363.743 8.81429 363.125 8.66107C362.253 8.445 362.07 8.52074 362.309 8.99857C362.558 9.4945 362.386 9.54591 361.424 9.26179C360.53 8.99813 359.891 9.1125 358.881 9.7168C358.139 10.161 357.705 10.3208 357.918 10.0719C358.522 9.36627 357.482 9.12573 356.31 9.70025C355.714 9.99312 355.018 10.0713 354.711 9.87996C353.815 9.32254 350.327 9.93749 350.295 10.6583C350.259 11.4675 349.455 12.0394 349.393 11.2999C349.367 10.9959 349.389 10.5997 349.44 10.42C349.659 9.64844 348.11 10.4774 347.745 11.3274C347.481 11.9411 347.331 12.0288 347.31 11.5819C347.281 10.9592 346.209 10.6444 344.813 10.8489C344.51 10.8934 343.767 10.9643 343.162 11.0065C342.558 11.0488 342.062 11.1282 342.06 11.1827C342.055 11.3319 340.232 11.493 336.561 11.6683C332.723 11.8518 331.721 12.0231 332.061 12.4371C332.197 12.602 331.592 12.7225 330.717 12.7046C329.841 12.6868 329.129 12.5574 329.134 12.4168C329.138 12.2763 328.646 12.2429 328.039 12.3423C327.433 12.4421 326.931 12.6871 326.925 12.8868C326.918 13.0877 325.825 13.1367 324.479 12.9963C322.76 12.8171 321.803 12.9055 321.223 13.2969C320.634 13.6936 320.344 13.7188 320.2 13.3855C320.046 13.0279 319.117 13.0113 316.183 13.315C314.084 13.532 311.936 13.7083 311.408 13.7065C310.88 13.7047 310.443 13.8711 310.436 14.0759C310.429 14.2807 309.807 14.3253 309.055 14.1748C308.27 14.0181 307.332 14.0991 306.855 14.3652C306.398 14.6205 306.03 14.6671 306.036 14.4693C306.043 14.2517 304.58 14.2102 302.339 14.3644C300.298 14.5051 298.013 14.5949 297.26 14.5639C296.507 14.5334 294.776 14.6633 293.412 14.8533C292.049 15.0429 289.698 15.2517 288.188 15.3171C286.678 15.3822 284.576 15.5275 283.517 15.6395C282.457 15.7516 279.986 15.8664 278.025 15.8942C271.227 15.9913 265.67 16.3284 265.025 16.6831C264.666 16.8803 264.25 16.8854 264.093 16.6944C263.694 16.2091 259.208 16.4277 257.838 16.9994C257.455 17.1591 257.148 17.1322 257.155 16.9399C257.161 16.7476 256.363 16.6366 255.381 16.6934C254.399 16.7501 252.796 16.8187 251.82 16.846C249.944 16.8977 248.931 17.7704 250.099 18.329C250.48 18.5113 250.584 18.6588 250.33 18.6571C250.076 18.655 249.253 18.2904 248.501 17.8465C247.105 17.0226 242.909 16.6223 242.886 17.311C242.879 17.5235 242.08 17.4959 240.92 17.2428C238.512 16.7181 237.326 16.9631 237.718 17.9041C237.904 18.3489 237.845 18.4362 237.559 18.1412C236.874 17.4381 234.125 16.9742 234.105 17.5586C234.092 17.937 233.92 17.9327 233.288 17.5396C232.751 17.2049 231.667 17.1115 229.993 17.255C227.557 17.4645 227.501 17.5007 227.581 18.809C227.631 19.6316 227.95 20.1547 228.405 20.1639C228.813 20.1723 228.986 19.9822 228.788 19.7417C228.591 19.5012 229.065 19.6188 229.844 20.0028C230.658 20.4046 231.265 20.521 231.273 20.2769C231.282 19.9912 231.708 19.9757 232.573 20.2294C233.449 20.4865 234.32 20.4473 235.309 20.1071ZM211.903 19.1135C211.754 18.9317 211.98 18.7902 212.406 18.7989C212.831 18.8076 213.047 18.958 212.886 19.1336C212.725 19.3087 212.499 19.4502 212.384 19.4479C212.269 19.4455 212.052 19.295 211.903 19.1135ZM287.32 16.6668C287.327 16.4652 287.579 16.3055 287.881 16.3117C288.182 16.3178 288.419 16.5961 288.408 16.9298C288.397 17.2634 288.145 17.4234 287.848 17.2849C287.551 17.1464 287.314 16.8685 287.32 16.6668ZM363.2 10.2731C363.203 10.1785 363.456 9.9982 363.762 9.87198C364.067 9.74576 364.311 9.82825 364.304 10.0548C364.296 10.2814 364.044 10.4621 363.742 10.4559C363.441 10.4498 363.197 10.3677 363.2 10.2731ZM378.491 7.99876C379.175 7.82921 379.741 7.50961 379.749 7.28849C379.768 6.71893 378.269 6.75773 377.915 7.33605C377.689 7.70736 377.504 7.69153 377.108 7.26701C376.531 6.6475 373.731 6.89625 373.708 7.56936C373.699 7.8372 374.018 7.85032 374.666 7.60874C375.345 7.35613 375.879 7.40675 376.442 7.7774C376.984 8.13399 377.654 8.20648 378.491 7.99876ZM381.94 7.34367C381.947 7.14201 381.672 6.84655 381.329 6.68685C380.961 6.51495 380.848 6.56915 381.054 6.81956C381.245 7.05252 381.089 7.32555 380.707 7.42645C380.288 7.53672 380.392 7.62923 380.97 7.65971C381.497 7.6872 381.933 7.54533 381.94 7.34367ZM384.707 6.59208C384.715 6.35577 384.471 6.26588 384.165 6.3921C383.859 6.51832 383.618 6.34823 383.629 6.01459C383.641 5.68096 383.28 5.40013 382.828 5.39092C381.937 5.37276 381.777 5.7279 382.393 6.35597C382.95 6.92482 384.69 7.10207 384.707 6.59208ZM378.966 6.09136C379.16 5.88104 379.057 5.70363 378.738 5.69713C378.419 5.69063 378.152 5.86049 378.144 6.07461C378.137 6.28873 378.24 6.46612 378.373 6.46884C378.506 6.47155 378.773 6.30168 378.966 6.09136ZM387.437 5.6473C387.425 5.19322 387.299 5.0983 387.113 5.40502C386.946 5.68287 386.954 6.01925 387.132 6.1522C387.309 6.28516 387.446 6.05811 387.437 5.6473ZM391.334 5.17431C392.028 4.86511 392.045 4.74196 391.434 4.44553C390.486 3.98443 388.514 4.30498 388.762 4.87959C389.021 5.47895 390.317 5.62731 391.334 5.17431ZM394.322 4.51372C394.487 4.33438 394.279 3.84824 393.859 3.43298C393.44 3.01811 393.082 2.88303 393.064 3.13278C393.046 3.3829 392.873 3.86127 392.679 4.19624C392.305 4.84038 393.762 5.12213 394.322 4.51372ZM396.375 4.08925C396.703 3.3355 396.69 2.1673 396.353 2.16042C395.629 2.14567 395.172 3.41921 395.746 3.84932C396.05 4.07679 396.333 4.18501 396.375 4.08925ZM399.354 3.09228C399.974 2.78663 400.305 1.07226 399.746 1.06086C399.551 1.05689 398.947 1.40338 398.405 1.83097C397.094 2.86311 397.831 3.84273 399.354 3.09228ZM401.861 1.90609C401.875 1.4654 401.641 1.09948 401.34 1.09334C401.038 1.0872 400.783 1.33445 400.773 1.64317C400.763 1.95189 400.997 2.31741 401.294 2.45591C401.591 2.59442 401.846 2.34679 401.861 1.90609ZM404.132 1.65982C404.793 1.11074 404.79 1.06277 404.117 1.33382C403.525 1.57186 403.421 1.49105 403.699 1.01054C403.904 0.658244 403.858 0.365526 403.599 0.360244C403.123 0.350551 402.431 1.26205 402.408 1.92621C402.389 2.49771 403.291 2.35833 404.132 1.65982Z" fill="#E01616"/>
</svg>
