<svg width="78" height="78" viewBox="0 0 78 78" fill="none" xmlns="http://www.w3.org/2000/svg">
<g filter="url(#filter0_dd_7726_28551)">
<path d="M24.3581 39.133C24.3408 35.63 24.4552 32.1291 25.0228 28.6694C25.2364 27.361 25.5364 26.033 26.037 24.8155C26.9348 22.6253 28.7453 21.4987 31.0069 21.0416C32.5262 20.7362 33.9612 21.111 35.3855 21.5637C38.7693 22.6383 41.8919 24.2847 44.9627 26.0373C48.4717 28.039 51.8964 30.1794 54.9888 32.8051C55.8628 33.5481 56.7044 34.341 57.4921 35.1772C59.6825 37.5039 59.5358 41.0503 57.2547 43.2946C53.3466 47.1421 48.75 50.0039 44.0283 52.6772C41.1711 54.2955 38.247 55.7686 35.0855 56.7218C33.193 57.2916 31.3198 57.4692 29.4639 56.6655C27.6102 55.864 26.3262 54.5403 25.7328 52.5386C24.63 48.8124 24.4746 44.9779 24.3624 41.1369C24.3408 40.4675 24.3581 39.8003 24.3581 39.133ZM26.2723 34.2522C26.2485 34.4558 26.2097 34.64 26.2075 34.8241C26.1881 37.205 26.1255 39.588 26.173 41.9688C26.2399 45.3614 26.4557 48.7431 27.4311 52.0295C27.9167 53.6651 29.0086 54.6313 30.5581 55.1772C30.8904 55.2942 31.0673 55.2075 31.2724 54.9389C32.4441 53.39 33.644 51.8605 34.818 50.3115C35.7049 49.1439 35.9811 47.8267 35.5128 46.4316C34.546 43.5459 33.5426 40.6755 32.5197 37.8094C32.0277 36.4272 31.0242 35.5412 29.6215 35.1426C28.5382 34.8306 27.4419 34.5598 26.2723 34.2522ZM31.8982 22.6599C31.9176 22.8722 31.9133 22.9285 31.9305 22.9762C32.7268 25.2704 33.5188 27.5689 34.3281 29.8588C34.8136 31.2344 35.7437 32.2093 37.1335 32.6361C39.6325 33.403 42.1487 34.1157 44.6628 34.8371C45.6511 35.1209 46.6136 34.9888 47.5394 34.549C48.8644 33.9229 49.4794 32.6317 50.3858 31.5551C50.2132 31.4251 50.0966 31.3168 49.9628 31.2366C47.1833 29.5642 44.4362 27.8289 41.607 26.2431C39.1059 24.8415 36.499 23.6348 33.6915 22.9459C33.1282 22.8072 32.5413 22.7596 31.8982 22.6599ZM47.5135 38.8926C47.4099 38.221 47.1164 37.8072 46.4733 37.6036C42.8414 36.4467 39.2073 35.3029 35.5754 34.1504C35.064 33.9879 34.6151 34.0746 34.2396 34.4515C33.8598 34.8328 33.8015 35.3029 33.9634 35.8033C35.1524 39.4428 36.335 43.0845 37.537 46.7219C37.8866 47.779 38.97 47.9892 39.749 47.1876C40.5129 46.4012 41.2812 45.6213 42.0473 44.8371C43.6809 43.1668 45.3188 41.5031 46.9373 39.8154C47.1833 39.5598 47.3236 39.2024 47.5135 38.8926ZM56.5793 41.4164C56.5599 41.3579 56.5404 41.2972 56.5189 41.2388C54.6781 40.981 52.8438 40.6668 50.9965 40.4892C49.9909 40.3917 49.0133 40.7557 48.2774 41.4619C46.3741 43.2946 44.488 45.1512 42.6601 47.0576C41.3718 48.403 41.4215 50.6148 42.1573 51.7089C47.302 48.7539 52.4294 45.7773 56.5793 41.4164ZM30.0229 23.1972C28.7993 23.7778 27.9059 24.6097 27.5045 25.9008C26.8959 27.8549 26.5679 29.8588 26.3996 31.8952C26.3694 32.2613 26.4902 32.3869 26.8312 32.4736C28.3936 32.87 29.9495 33.286 31.5033 33.7193C32.1097 33.8882 32.6427 33.8471 33.0786 33.3618C33.5167 32.8722 33.4821 32.322 33.2599 31.7435C32.7182 30.3332 32.1938 28.9142 31.6586 27.5018C31.117 26.0741 30.5732 24.6487 30.0229 23.1972ZM57.2742 39.3757C57.3195 38.325 57.1058 37.4173 56.4606 36.7305C55.4916 35.7015 54.4364 34.7505 53.3962 33.7929C52.9668 33.3965 52.4791 33.0629 51.9978 32.6837C50.9706 33.7994 49.9779 34.8609 49.0047 35.942C48.845 36.1196 48.7306 36.3687 48.681 36.6049C48.4717 37.5841 49.0824 38.3185 50.1894 38.4636C51.5727 38.6456 52.956 38.8276 54.3414 39.0052C55.2953 39.1287 56.2513 39.2457 57.2742 39.3757ZM33.4282 55.292C35.9466 54.7136 38.165 53.7366 40.3619 52.6036C40.3036 52.4086 40.2583 52.2374 40.2 52.0706C39.954 51.3557 39.7555 50.6213 39.4447 49.9346C39.0714 49.107 37.9298 48.9857 37.3903 49.7223C36.0761 51.5225 34.805 53.3531 33.4282 55.292Z" fill="#7185EC"/>
<path fill-rule="evenodd" clip-rule="evenodd" d="M39 10.3953C23.2021 10.3953 10.3953 23.2021 10.3953 39C10.3953 54.7979 23.2021 67.6046 39 67.6046C54.7979 67.6046 67.6047 54.7979 67.6047 39C67.6047 23.2021 54.7979 10.3953 39 10.3953ZM9 39C9 22.4315 22.4315 9 39 9C55.5685 9 69 22.4315 69 39C69 55.5685 55.5685 69 39 69C22.4315 69 9 55.5685 9 39Z" fill="#7185EC"/>
</g>
<defs>
<filter id="filter0_dd_7726_28551" x="0.428571" y="0.428571" width="77.1429" height="77.1429" filterUnits="userSpaceOnUse" color-interpolation-filters="sRGB">
<feFlood flood-opacity="0" result="BackgroundImageFix"/>
<feColorMatrix in="SourceAlpha" type="matrix" values="0 0 0 0 0 0 0 0 0 0 0 0 0 0 0 0 0 0 127 0" result="hardAlpha"/>
<feOffset dx="2.85714" dy="2.85714"/>
<feGaussianBlur stdDeviation="2.85714"/>
<feColorMatrix type="matrix" values="0 0 0 0 0 0 0 0 0 0 0 0 0 0 0 0 0 0 0.25 0"/>
<feBlend mode="normal" in2="BackgroundImageFix" result="effect1_dropShadow_7726_28551"/>
<feColorMatrix in="SourceAlpha" type="matrix" values="0 0 0 0 0 0 0 0 0 0 0 0 0 0 0 0 0 0 127 0" result="hardAlpha"/>
<feOffset dx="-2.85714" dy="-2.85714"/>
<feGaussianBlur stdDeviation="2.85714"/>
<feColorMatrix type="matrix" values="0 0 0 0 1 0 0 0 0 1 0 0 0 0 1 0 0 0 0.15 0"/>
<feBlend mode="normal" in2="effect1_dropShadow_7726_28551" result="effect2_dropShadow_7726_28551"/>
<feBlend mode="normal" in="SourceGraphic" in2="effect2_dropShadow_7726_28551" result="shape"/>
</filter>
</defs>
</svg>
