<svg width="180" height="52" viewBox="0 0 180 52" fill="none" xmlns="http://www.w3.org/2000/svg">
<path d="M173.333 1.04162C176.42 1.04162 178.932 3.4905 178.932 6.5V45.5C178.932 48.5095 176.42 50.9584 173.333 50.9584H6.66667C3.58 50.9584 1.06833 48.5095 1.06833 45.5V6.5C1.06833 3.4905 3.58 1.04162 6.66667 1.04162H173.333ZM173.333 2.74817e-06H6.66667C3.00167 2.74817e-06 0 2.92663 0 6.5V45.5C0 49.0734 3.00167 52 6.66667 52H173.333C176.998 52 180 49.0734 180 45.5V6.5C180 2.92663 176.998 2.74817e-06 173.333 2.74817e-06Z" fill="white"/>
<path d="M40.1695 25.7191C40.1308 21.5292 43.6881 19.4908 43.8508 19.3959C41.8361 16.532 38.7135 16.1407 37.6161 16.1095C34.9935 15.8404 32.4495 17.6396 31.1135 17.6396C29.7508 17.6396 27.6935 16.1355 25.4761 16.1797C22.6228 16.2226 19.9535 17.8333 18.4895 20.3345C15.4681 25.4344 17.7215 32.9289 20.6161 37.0512C22.0641 39.0701 23.7561 41.3243 25.9708 41.245C28.1375 41.1579 28.9468 39.8982 31.5615 39.8982C34.1521 39.8982 34.9121 41.245 37.1708 41.1943C39.4961 41.1579 40.9601 39.1663 42.3575 37.1292C44.0308 34.8152 44.7028 32.5363 44.7295 32.4193C44.6748 32.4011 40.2135 30.741 40.1695 25.7191Z" fill="white"/>
<path d="M35.9028 13.3977C37.0681 11.9768 37.8655 10.0437 37.6441 8.08203C35.9575 8.15483 33.8481 9.21953 32.6335 10.6092C31.5588 11.8338 30.5988 13.841 30.8468 15.7286C32.7415 15.8664 34.6868 14.7965 35.9028 13.3977Z" fill="white"/>
<path d="M71.5269 40.9557H68.4989L66.8402 35.874H61.0749L59.4949 40.9557H56.5469L62.2589 23.6553H65.7869L71.5269 40.9557ZM66.3402 33.742L64.8402 29.2245C64.6815 28.763 64.3842 27.6762 63.9455 25.9654H63.8922C63.7175 26.7012 63.4362 27.788 63.0495 29.2245L61.5762 33.742H66.3402Z" fill="white"/>
<path d="M86.2159 34.5647C86.2159 36.6863 85.6279 38.3633 84.4519 39.5944C83.3985 40.6903 82.0905 41.2376 80.5292 41.2376C78.8439 41.2376 77.6332 40.6474 76.8959 39.467H76.8425V46.0385H73.9999V32.5874C73.9999 31.2536 73.9639 29.8847 73.8945 28.4807H76.3945L76.5532 30.458H76.6065C77.5545 28.9682 78.9932 28.2246 80.9239 28.2246C82.4332 28.2246 83.6932 28.8057 84.7012 29.9692C85.7119 31.134 86.2159 32.6654 86.2159 34.5647ZM83.3199 34.6661C83.3199 33.4519 83.0399 32.4509 82.4772 31.6631C81.8625 30.8415 81.0372 30.4307 80.0025 30.4307C79.3012 30.4307 78.6639 30.6595 78.0945 31.1106C77.5239 31.5656 77.1505 32.1597 76.9759 32.8955C76.8879 33.2387 76.8439 33.5195 76.8439 33.7405V35.8205C76.8439 36.7279 77.1292 37.4936 77.6999 38.1189C78.2705 38.7442 79.0119 39.0562 79.9239 39.0562C80.9945 39.0562 81.8279 38.6532 82.4239 37.8498C83.0212 37.0451 83.3199 35.9843 83.3199 34.6661Z" fill="white"/>
<path d="M100.933 34.5647C100.933 36.6863 100.345 38.3633 99.168 39.5944C98.116 40.6903 96.8079 41.2376 95.2466 41.2376C93.5613 41.2376 92.3506 40.6474 91.6146 39.467H91.5613V46.0385H88.7186V32.5874C88.7186 31.2536 88.6826 29.8847 88.6133 28.4807H91.1133L91.272 30.458H91.3253C92.2719 28.9682 93.7106 28.2246 95.6426 28.2246C97.1506 28.2246 98.4106 28.8057 99.4213 29.9692C100.428 31.134 100.933 32.6654 100.933 34.5647ZM98.0373 34.6661C98.0373 33.4519 97.7559 32.4509 97.1933 31.6631C96.5786 30.8415 95.756 30.4307 94.72 30.4307C94.0173 30.4307 93.3813 30.6595 92.8106 31.1106C92.24 31.5656 91.8679 32.1597 91.6933 32.8955C91.6066 33.2387 91.5613 33.5195 91.5613 33.7405V35.8205C91.5613 36.7279 91.8466 37.4936 92.4146 38.1189C92.9853 38.7429 93.7266 39.0562 94.6413 39.0562C95.712 39.0562 96.5453 38.6532 97.1413 37.8498C97.7386 37.0451 98.0373 35.9843 98.0373 34.6661Z" fill="white"/>
<path d="M117.387 36.1037C117.387 37.5753 116.863 38.7726 115.811 39.6969C114.655 40.707 113.046 41.2114 110.978 41.2114C109.068 41.2114 107.538 40.8526 106.379 40.1337L107.038 37.8236C108.286 38.5594 109.655 38.9286 111.147 38.9286C112.218 38.9286 113.051 38.692 113.65 38.2214C114.246 37.7508 114.543 37.119 114.543 36.3312C114.543 35.6292 114.298 35.0377 113.806 34.558C113.316 34.0783 112.499 33.6324 111.358 33.2203C108.251 32.0906 106.699 30.4357 106.699 28.2595C106.699 26.8373 107.243 25.6712 108.332 24.7638C109.418 23.8551 110.866 23.4014 112.676 23.4014C114.291 23.4014 115.632 23.6757 116.703 24.223L115.992 26.4824C114.992 25.952 113.862 25.6868 112.596 25.6868C111.596 25.6868 110.815 25.9273 110.255 26.4057C109.782 26.8334 109.544 27.3547 109.544 27.9722C109.544 28.656 109.815 29.2215 110.359 29.6661C110.832 30.0769 111.692 30.5215 112.94 31.0012C114.467 31.6005 115.588 32.3012 116.31 33.1046C117.028 33.9054 117.387 34.9077 117.387 36.1037Z" fill="white"/>
<path d="M126.784 30.5604H123.651V36.6171C123.651 38.1576 124.203 38.9272 125.31 38.9272C125.818 38.9272 126.239 38.8843 126.572 38.7985L126.651 40.9032C126.091 41.1073 125.354 41.21 124.44 41.21C123.318 41.21 122.44 40.8759 121.807 40.209C121.176 39.5408 120.859 38.4202 120.859 36.8459V30.5578H118.992V28.4778H120.859V26.1937L123.651 25.3721V28.4778H126.784V30.5604Z" fill="white"/>
<path d="M140.923 34.6151C140.923 36.5326 140.36 38.1069 139.237 39.338C138.06 40.6055 136.497 41.2373 134.549 41.2373C132.672 41.2373 131.177 40.6302 130.063 39.416C128.948 38.2018 128.391 36.6691 128.391 34.8218C128.391 32.8887 128.964 31.3053 130.115 30.0742C131.263 28.8418 132.812 28.2256 134.76 28.2256C136.637 28.2256 138.148 28.8327 139.288 30.0482C140.379 31.2273 140.923 32.7496 140.923 34.6151ZM137.973 34.7048C137.973 33.5543 137.721 32.5676 137.211 31.7447C136.615 30.7489 135.763 30.2523 134.659 30.2523C133.516 30.2523 132.648 30.7502 132.052 31.7447C131.541 32.5689 131.289 33.5712 131.289 34.7568C131.289 35.9073 131.541 36.894 132.052 37.7156C132.667 38.7114 133.525 39.208 134.633 39.208C135.719 39.208 136.571 38.701 137.185 37.6896C137.709 36.8511 137.973 35.854 137.973 34.7048Z" fill="white"/>
<path d="M150.162 30.9182C149.88 30.8675 149.58 30.8415 149.266 30.8415C148.266 30.8415 147.492 31.2094 146.948 31.9465C146.475 32.5965 146.238 33.4181 146.238 34.41V40.9555H143.396L143.423 32.4093C143.423 30.9715 143.387 29.6624 143.316 28.482H145.792L145.896 30.8688H145.975C146.275 30.0485 146.748 29.3881 147.396 28.8928C148.03 28.4469 148.714 28.2246 149.451 28.2246C149.714 28.2246 149.951 28.2428 150.162 28.2753V30.9182Z" fill="white"/>
<path d="M162.875 34.1279C162.875 34.6245 162.841 35.0431 162.771 35.385H154.243C154.276 36.6174 154.688 37.5599 155.48 38.2099C156.199 38.791 157.128 39.0822 158.269 39.0822C159.532 39.0822 160.684 38.8859 161.72 38.492L162.165 40.416C160.955 40.9308 159.525 41.1869 157.876 41.1869C155.892 41.1869 154.335 40.6175 153.201 39.48C152.071 38.3425 151.504 36.815 151.504 34.8988C151.504 33.0177 152.031 31.4512 153.085 30.2019C154.189 28.8681 155.681 28.2012 157.559 28.2012C159.403 28.2012 160.799 28.8681 161.747 30.2019C162.497 31.2614 162.875 32.5718 162.875 34.1279ZM160.164 33.409C160.183 32.5874 159.997 31.8776 159.612 31.2783C159.12 30.5074 158.364 30.1226 157.347 30.1226C156.417 30.1226 155.661 30.4983 155.084 31.2523C154.611 31.8516 154.329 32.5705 154.243 33.4077H160.164V33.409Z" fill="white"/>
<path d="M65.3997 13.0113C65.3997 14.5414 64.9291 15.6932 63.989 16.4667C63.1184 17.1804 61.881 17.5379 60.2784 17.5379C59.4837 17.5379 58.8037 17.5041 58.2344 17.4365V9.07621C58.977 8.95921 59.777 8.89941 60.641 8.89941C62.1677 8.89941 63.3184 9.22311 64.0944 9.87051C64.9637 10.6024 65.3997 11.6489 65.3997 13.0113ZM63.9264 13.049C63.9264 12.0571 63.657 11.2966 63.1184 10.7662C62.5797 10.2371 61.793 9.97191 60.757 9.97191C60.317 9.97191 59.9424 10.0005 59.6317 10.0603V16.416C59.8037 16.442 60.1184 16.4537 60.5757 16.4537C61.645 16.4537 62.4704 16.1638 63.0517 15.584C63.6331 15.0042 63.9264 14.1592 63.9264 13.049Z" fill="white"/>
<path d="M73.2107 14.3482C73.2107 15.2907 72.9347 16.0629 72.3827 16.6687C71.804 17.2914 71.0374 17.6021 70.08 17.6021C69.1574 17.6021 68.4227 17.3044 67.8747 16.7064C67.328 16.1097 67.0547 15.357 67.0547 14.4496C67.0547 13.5006 67.336 12.7219 67.9014 12.1174C68.4667 11.5129 69.2267 11.21 70.184 11.21C71.1067 11.21 71.848 11.5077 72.4094 12.1044C72.9427 12.6842 73.2107 13.433 73.2107 14.3482ZM71.7614 14.3924C71.7614 13.8269 71.636 13.342 71.3867 12.9377C71.0934 12.4489 70.676 12.2045 70.1334 12.2045C69.572 12.2045 69.1454 12.4489 68.852 12.9377C68.6014 13.342 68.4774 13.8347 68.4774 14.4171C68.4774 14.9826 68.6027 15.4675 68.852 15.8718C69.1547 16.3606 69.576 16.605 70.12 16.605C70.6534 16.605 71.072 16.3567 71.3734 15.8588C71.632 15.4467 71.7614 14.9579 71.7614 14.3924Z" fill="white"/>
<path d="M83.6848 11.334L81.7181 17.4622H80.4381L79.6235 14.8011C79.4168 14.1368 79.2488 13.4764 79.1181 12.8212H79.0928C78.9715 13.4946 78.8035 14.1537 78.5875 14.8011L77.7221 17.4622H76.4275L74.5781 11.334H76.0141L76.7248 14.2473C76.8968 14.9363 77.0381 15.5928 77.1515 16.2142H77.1768C77.2808 15.702 77.4528 15.0494 77.6955 14.2603L78.5875 11.3353H79.7261L80.5808 14.1979C80.7875 14.896 80.9555 15.5681 81.0848 16.2155H81.1235C81.2181 15.585 81.3608 14.9129 81.5501 14.1979L82.3128 11.3353H83.6848V11.334Z" fill="white"/>
<path d="M90.9312 17.463H89.5339V13.953C89.5339 12.8714 89.1125 12.3306 88.2672 12.3306C87.8525 12.3306 87.5179 12.4788 87.2579 12.7765C87.0005 13.0742 86.8699 13.4252 86.8699 13.8269V17.4617H85.4725V13.0859C85.4725 12.5477 85.4552 11.964 85.4219 11.3322H86.6499L86.7152 12.2903H86.7539C86.9165 11.9926 87.1592 11.7469 87.4779 11.5506C87.8565 11.3218 88.2805 11.2061 88.7445 11.2061C89.3312 11.2061 89.8192 11.3907 90.2072 11.7612C90.6899 12.2149 90.9312 12.8922 90.9312 13.7918V17.463Z" fill="white"/>
<path d="M94.7827 17.4626H93.3867V8.52246H94.7827V17.4626Z" fill="white"/>
<path d="M103.011 14.3482C103.011 15.2907 102.735 16.0629 102.183 16.6687C101.605 17.2914 100.837 17.6021 99.8808 17.6021C98.9568 17.6021 98.2221 17.3044 97.6755 16.7064C97.1288 16.1097 96.8555 15.357 96.8555 14.4496C96.8555 13.5006 97.1368 12.7219 97.7021 12.1174C98.2675 11.5129 99.0275 11.21 99.9835 11.21C100.907 11.21 101.647 11.5077 102.21 12.1044C102.743 12.6842 103.011 13.433 103.011 14.3482ZM101.561 14.3924C101.561 13.8269 101.435 13.342 101.186 12.9377C100.894 12.4489 100.475 12.2045 99.9341 12.2045C99.3715 12.2045 98.9448 12.4489 98.6528 12.9377C98.4021 13.342 98.2781 13.8347 98.2781 14.4171C98.2781 14.9826 98.4035 15.4675 98.6528 15.8718C98.9555 16.3606 99.3768 16.605 99.9208 16.605C100.454 16.605 100.871 16.3567 101.173 15.8588C101.433 15.4467 101.561 14.9579 101.561 14.3924Z" fill="white"/>
<path d="M109.773 17.463H108.519L108.415 16.7571H108.376C107.947 17.32 107.335 17.6021 106.54 17.6021C105.947 17.6021 105.467 17.4162 105.105 17.047C104.777 16.7116 104.613 16.2943 104.613 15.799C104.613 15.0502 104.933 14.4795 105.577 14.0843C106.22 13.6891 107.124 13.4954 108.288 13.5045V13.3901C108.288 12.5828 107.853 12.1798 106.983 12.1798C106.363 12.1798 105.816 12.3319 105.344 12.6335L105.06 11.7391C105.644 11.3868 106.365 11.21 107.216 11.21C108.859 11.21 109.683 12.055 109.683 13.745V16.0018C109.683 16.6141 109.713 17.1016 109.773 17.463ZM108.323 15.357V14.4119C106.781 14.3859 106.011 14.798 106.011 15.6469C106.011 15.9667 106.099 16.2059 106.279 16.3658C106.459 16.5257 106.688 16.605 106.961 16.605C107.268 16.605 107.555 16.5101 107.816 16.3216C108.079 16.1318 108.24 15.8913 108.3 15.5962C108.315 15.5299 108.323 15.4493 108.323 15.357Z" fill="white"/>
<path d="M117.715 17.4626H116.475L116.409 16.4785H116.371C115.975 17.2273 115.3 17.6017 114.352 17.6017C113.595 17.6017 112.964 17.3118 112.464 16.732C111.964 16.1522 111.715 15.3995 111.715 14.4752C111.715 13.4833 111.986 12.6799 112.53 12.0663C113.056 11.4943 113.702 11.2083 114.469 11.2083C115.313 11.2083 115.904 11.4852 116.24 12.0403H116.267V8.52246H117.665V15.8116C117.665 16.4083 117.682 16.9582 117.715 17.4626ZM116.267 14.8782V13.8564C116.267 13.6796 116.253 13.5366 116.228 13.4274C116.149 13.0998 115.98 12.8242 115.723 12.6019C115.463 12.3796 115.149 12.2678 114.788 12.2678C114.267 12.2678 113.859 12.4693 113.559 12.8736C113.262 13.2779 113.111 13.794 113.111 14.4245C113.111 15.0303 113.254 15.5217 113.54 15.9C113.843 16.303 114.251 16.5045 114.762 16.5045C115.22 16.5045 115.587 16.3368 115.866 16.0001C116.135 15.6894 116.267 15.315 116.267 14.8782Z" fill="white"/>
<path d="M129.664 14.3482C129.664 15.2907 129.388 16.0629 128.836 16.6687C128.257 17.2914 127.492 17.6021 126.533 17.6021C125.612 17.6021 124.877 17.3044 124.328 16.7064C123.781 16.1097 123.508 15.357 123.508 14.4496C123.508 13.5006 123.789 12.7219 124.354 12.1174C124.92 11.5129 125.68 11.21 126.638 11.21C127.56 11.21 128.302 11.5077 128.862 12.1044C129.396 12.6842 129.664 13.433 129.664 14.3482ZM128.216 14.3924C128.216 13.8269 128.09 13.342 127.841 12.9377C127.546 12.4489 127.13 12.2045 126.586 12.2045C126.026 12.2045 125.6 12.4489 125.305 12.9377C125.054 13.342 124.93 13.8347 124.93 14.4171C124.93 14.9826 125.056 15.4675 125.305 15.8718C125.608 16.3606 126.029 16.605 126.573 16.605C127.106 16.605 127.526 16.3567 127.828 15.8588C128.085 15.4467 128.216 14.9579 128.216 14.3924Z" fill="white"/>
<path d="M137.176 17.463H135.78V13.953C135.78 12.8714 135.359 12.3306 134.512 12.3306C134.097 12.3306 133.763 12.4788 133.504 12.7765C133.245 13.0742 133.116 13.4252 133.116 13.8269V17.4617H131.717V13.0859C131.717 12.5477 131.701 11.964 131.668 11.3322H132.895L132.96 12.2903H132.999C133.163 11.9926 133.405 11.7469 133.723 11.5506C134.103 11.3218 134.525 11.2061 134.991 11.2061C135.576 11.2061 136.064 11.3907 136.452 11.7612C136.936 12.2149 137.176 12.8922 137.176 13.7918V17.463Z" fill="white"/>
<path d="M146.582 12.3553H145.043V15.3323C145.043 16.0889 145.317 16.4672 145.858 16.4672C146.109 16.4672 146.317 16.4464 146.481 16.4035L146.517 17.437C146.241 17.5384 145.878 17.5891 145.431 17.5891C144.879 17.5891 144.45 17.4253 144.139 17.0977C143.827 16.7701 143.673 16.2189 143.673 15.4454V12.3553H142.754V11.3348H143.673V10.2116L145.042 9.80859V11.3335H146.581V12.3553H146.582Z" fill="white"/>
<path d="M153.978 17.4626H152.58V13.9786C152.58 12.8801 152.158 12.3302 151.314 12.3302C150.666 12.3302 150.224 12.6487 149.981 13.2857C149.94 13.4196 149.916 13.5834 149.916 13.7758V17.4613H148.52V8.52246H149.916V12.2158H149.942C150.382 11.5437 151.013 11.2083 151.83 11.2083C152.409 11.2083 152.888 11.3929 153.268 11.7634C153.741 12.2249 153.978 12.9113 153.978 13.8187V17.4626Z" fill="white"/>
<path d="M161.608 14.1089C161.608 14.3533 161.589 14.5587 161.556 14.7264H157.365C157.384 15.3322 157.584 15.7937 157.972 16.1135C158.326 16.3995 158.784 16.5425 159.344 16.5425C159.964 16.5425 160.529 16.4463 161.038 16.2526L161.257 17.199C160.661 17.4512 159.96 17.5773 159.148 17.5773C158.174 17.5773 157.408 17.2978 156.853 16.7388C156.296 16.1798 156.02 15.4297 156.02 14.4885C156.02 13.5642 156.277 12.7946 156.796 12.181C157.337 11.5258 158.069 11.1982 158.993 11.1982C159.897 11.1982 160.584 11.5258 161.048 12.181C161.422 12.701 161.608 13.3445 161.608 14.1089ZM160.274 13.7566C160.285 13.3523 160.193 13.0039 160.004 12.7101C159.761 12.3318 159.392 12.142 158.892 12.142C158.436 12.142 158.064 12.3266 157.78 12.6971C157.548 12.9922 157.41 13.3445 157.365 13.7566H160.274Z" fill="white"/>
</svg>
