<svg width="78" height="78" viewBox="0 0 78 78" fill="none" xmlns="http://www.w3.org/2000/svg">
<g filter="url(#filter0_dd_7726_28542)">
<path fill-rule="evenodd" clip-rule="evenodd" d="M39.25 10.3953C23.4521 10.3953 10.6453 23.2021 10.6453 39C10.6453 54.7979 23.4521 67.6046 39.25 67.6046C55.0479 67.6046 67.8547 54.7979 67.8547 39C67.8547 23.2021 55.0479 10.3953 39.25 10.3953ZM9.25 39C9.25 22.4315 22.6815 9 39.25 9C55.8185 9 69.25 22.4315 69.25 39C69.25 55.5685 55.8185 69 39.25 69C22.6815 69 9.25 55.5685 9.25 39Z" fill="#7185EC"/>
<path fill-rule="evenodd" clip-rule="evenodd" d="M39.8163 20.6352C39.0553 20.6352 38.3067 20.8276 37.6401 21.1946C36.9735 21.5617 36.4106 22.0913 36.0036 22.7343C35.5967 23.3773 35.359 24.1128 35.3126 24.8723C35.2663 25.6319 35.4128 26.3908 35.7385 27.0785C35.8409 27.2947 35.8254 27.5482 35.6975 27.7503C35.5696 27.9523 35.3471 28.0748 35.108 28.0748L26.4199 28.0747C26.3161 28.0747 26.2132 28.0952 26.1173 28.1349C26.0213 28.1747 25.9342 28.2329 25.8607 28.3064C25.7873 28.3798 25.729 28.467 25.6893 28.5629C25.6496 28.6589 25.6291 28.7617 25.6291 28.8656L25.6292 36.8094C25.6292 37.0485 25.5067 37.271 25.3046 37.3989C25.1025 37.5268 24.849 37.5423 24.6329 37.4399C23.9452 37.1142 23.1862 36.9677 22.4267 37.014C21.6671 37.0604 20.9317 37.2981 20.2887 37.705C19.6456 38.112 19.116 38.6749 18.749 39.3415C18.382 40.0081 18.1895 40.7567 18.1895 41.5177C18.1895 42.2786 18.382 43.0272 18.749 43.6938C19.116 44.3604 19.6456 44.9234 20.2887 45.3303C20.9317 45.7373 21.6671 45.975 22.4267 46.0213C23.1862 46.0677 23.9452 45.9212 24.6329 45.5954C24.849 45.4931 25.1025 45.5086 25.3046 45.6364C25.5067 45.7643 25.6292 45.9868 25.6292 46.226L25.6291 54.1698C25.6291 54.2736 25.6496 54.3765 25.6893 54.4724C25.729 54.5684 25.7873 54.6555 25.8607 54.729C25.9342 54.8024 26.0213 54.8607 26.1173 54.9004C26.2132 54.9402 26.3161 54.9606 26.4199 54.9606L53.2126 54.9606C53.4223 54.9606 53.6235 54.8773 53.7718 54.729C53.9201 54.5807 54.0034 54.3795 54.0034 54.1698L54.0035 47.2229C53.3895 47.3878 52.7506 47.4531 52.1113 47.4141C51.1169 47.3534 50.154 47.0422 49.3121 46.5094C48.4702 45.9766 47.7768 45.2396 47.2963 44.3668C46.8158 43.4941 46.5638 42.514 46.5638 41.5177C46.5638 40.5214 46.8158 39.5413 47.2963 38.6685C47.7768 37.7958 48.4702 37.0587 49.3121 36.526C50.154 35.9932 51.1169 35.682 52.1113 35.6213C52.7506 35.5823 53.3895 35.6476 54.0035 35.8125L54.0034 28.8655C54.0034 28.6558 53.9201 28.4547 53.7718 28.3064C53.6235 28.1581 53.4223 28.0747 53.2126 28.0747L44.5246 28.0748C44.2854 28.0748 44.0629 27.9523 43.935 27.7503C43.8071 27.5482 43.7917 27.2947 43.894 27.0785C44.2197 26.3908 44.3662 25.6319 44.3199 24.8723C44.2735 24.1128 44.0358 23.3773 43.6289 22.7343C43.222 22.0913 42.659 21.5617 41.9924 21.1946C41.3258 20.8276 40.5772 20.6352 39.8163 20.6352ZM36.9671 19.9723C37.8399 19.4918 38.82 19.2398 39.8163 19.2398C40.8125 19.2398 41.7926 19.4918 42.6654 19.9723C43.5381 20.4528 44.2752 21.1463 44.808 21.9881C45.3407 22.83 45.652 23.7929 45.7126 24.7873C45.7517 25.4266 45.6863 26.0655 45.5214 26.6795L53.2126 26.6794C53.7924 26.6794 54.3484 26.9097 54.7584 27.3197C55.1684 27.7297 55.3987 28.2857 55.3987 28.8655L55.3988 36.8094C55.3988 37.0485 55.2763 37.271 55.0743 37.3989C54.8722 37.5268 54.6187 37.5423 54.4025 37.4399C53.7148 37.1142 52.9559 36.9677 52.1963 37.014C51.4368 37.0604 50.7013 37.2981 50.0583 37.705C49.4153 38.112 48.8856 38.6749 48.5186 39.3415C48.1516 40.0081 47.9592 40.7567 47.9592 41.5177C47.9592 42.2786 48.1516 43.0272 48.5186 43.6938C48.8856 44.3604 49.4153 44.9234 50.0583 45.3303C50.7013 45.7373 51.4368 45.975 52.1963 46.0213C52.9559 46.0677 53.7148 45.9212 54.4025 45.5954C54.6187 45.4931 54.8722 45.5085 55.0743 45.6364C55.2763 45.7643 55.3988 45.9868 55.3988 46.226L55.3987 54.1698C55.3987 54.7496 55.1684 55.3057 54.7584 55.7156C54.3484 56.1256 53.7924 56.3559 53.2126 56.3559L26.4199 56.356C26.1328 56.356 25.8485 56.2994 25.5833 56.1895C25.3181 56.0797 25.0771 55.9186 24.8741 55.7156C24.6711 55.5126 24.51 55.2716 24.4002 55.0064C24.2903 54.7411 24.2338 54.4569 24.2338 54.1698L24.2338 47.2229C23.6198 47.3878 22.9809 47.4531 22.3417 47.4141C21.3473 47.3534 20.3843 47.0422 19.5425 46.5094C18.7006 45.9766 18.0072 45.2396 17.5267 44.3668C17.0461 43.4941 16.7942 42.514 16.7942 41.5177C16.7942 40.5214 17.0461 39.5413 17.5267 38.6685C18.0072 37.7958 18.7006 37.0587 19.5425 36.526C20.3843 35.9932 21.3473 35.682 22.3417 35.6213C22.9809 35.5823 23.6198 35.6476 24.2338 35.8125L24.2338 28.8656C24.2338 28.5785 24.2903 28.2942 24.4002 28.029C24.51 27.7637 24.6711 27.5227 24.8741 27.3197C25.0771 27.1167 25.3181 26.9557 25.5833 26.8458C25.8486 26.7359 26.1329 26.6794 26.42 26.6794L34.1111 26.6795C33.9462 26.0655 33.8809 25.4266 33.9199 24.7873C33.9806 23.7929 34.2918 22.83 34.8245 21.9881C35.3573 21.1463 36.0944 20.4528 36.9671 19.9723Z" fill="#7185EC"/>
</g>
<defs>
<filter id="filter0_dd_7726_28542" x="0.678571" y="0.428571" width="77.1429" height="77.1429" filterUnits="userSpaceOnUse" color-interpolation-filters="sRGB">
<feFlood flood-opacity="0" result="BackgroundImageFix"/>
<feColorMatrix in="SourceAlpha" type="matrix" values="0 0 0 0 0 0 0 0 0 0 0 0 0 0 0 0 0 0 127 0" result="hardAlpha"/>
<feOffset dx="2.85714" dy="2.85714"/>
<feGaussianBlur stdDeviation="2.85714"/>
<feColorMatrix type="matrix" values="0 0 0 0 0 0 0 0 0 0 0 0 0 0 0 0 0 0 0.25 0"/>
<feBlend mode="normal" in2="BackgroundImageFix" result="effect1_dropShadow_7726_28542"/>
<feColorMatrix in="SourceAlpha" type="matrix" values="0 0 0 0 0 0 0 0 0 0 0 0 0 0 0 0 0 0 127 0" result="hardAlpha"/>
<feOffset dx="-2.85714" dy="-2.85714"/>
<feGaussianBlur stdDeviation="2.85714"/>
<feColorMatrix type="matrix" values="0 0 0 0 1 0 0 0 0 1 0 0 0 0 1 0 0 0 0.15 0"/>
<feBlend mode="normal" in2="effect1_dropShadow_7726_28542" result="effect2_dropShadow_7726_28542"/>
<feBlend mode="normal" in="SourceGraphic" in2="effect2_dropShadow_7726_28542" result="shape"/>
</filter>
</defs>
</svg>
